<svg xmlns="http://www.w3.org/2000/svg" width="100" height="55.788" viewBox="0 0 100 55.788">
  <path id="Logo" d="M31.731,55.788a6.7,6.7,0,0,1-2.146-.353l.139-.563a6.337,6.337,0,0,0,2.092.354l.17,0c.382,0,1.626-.046,1.626-.634,0-.415-.547-.494-1.556-.494h-.021c-1.137-.07-2.312-.143-2.312-1.2a1.015,1.015,0,0,1,.716-1,3.8,3.8,0,0,1,1.4-.2,10.826,10.826,0,0,1,2.12.211l-.141.563a8.785,8.785,0,0,0-1.919-.212h-.132c-.35,0-1.413,0-1.413.633,0,.468.678.564,1.7.564,1.127.071,2.192.138,2.192,1.056,0,1.1-1.461,1.267-2.333,1.267Zm-19.147,0h-.106a3.616,3.616,0,0,1-2.217-.571,1.929,1.929,0,0,1,0-2.94,3.619,3.619,0,0,1,2.218-.572h.1a6.377,6.377,0,0,1,1.876.282l-.141.563a5.913,5.913,0,0,0-1.806-.282h-.031c-1.459,0-2.262.525-2.262,1.479s.8,1.479,2.262,1.479h.035a5.89,5.89,0,0,0,1.8-.282l.141.563A6.365,6.365,0,0,1,12.585,55.788Zm64.358,0c-1.636,0-2.334-.484-2.334-1.619V51.774h.637v2.394a.873.873,0,0,0,.451.845,2.683,2.683,0,0,0,1.246.211c.873,0,1.766-.125,1.766-1.056V51.774h.566v2.394a1.38,1.38,0,0,1-.583,1.258A3.2,3.2,0,0,1,76.942,55.787Zm-12.865,0a3.4,3.4,0,0,1-1.784-.361,1.362,1.362,0,0,1-.617-1.258h0V51.774h.636v2.394c0,.93.893,1.056,1.766,1.056a2.682,2.682,0,0,0,1.246-.211.873.873,0,0,0,.451-.845V51.774h.636v2.394a1.38,1.38,0,0,1-.583,1.258A3.2,3.2,0,0,1,64.077,55.787Zm-22.053,0a3.013,3.013,0,0,1-1.968-.571,2,2,0,0,1,0-2.94,3.015,3.015,0,0,1,1.97-.572c1.613,0,2.616.782,2.616,2.041S43.637,55.787,42.024,55.787Zm-2.05-2.041a1.288,1.288,0,0,0,.521,1.056,2.506,2.506,0,0,0,1.529.423c1.239,0,1.978-.553,1.978-1.479s-.74-1.479-1.978-1.479a2.5,2.5,0,0,0-1.527.422,1.288,1.288,0,0,0-.521,1.056ZM18.7,55.787c-1.613,0-2.615-.782-2.615-2.042s1-2.041,2.615-2.041a3.192,3.192,0,0,1,2.006.572,1.927,1.927,0,0,1,0,2.939A3.191,3.191,0,0,1,18.7,55.787ZM16.72,53.746c0,.926.74,1.479,1.978,1.479a2.506,2.506,0,0,0,1.529-.423,1.287,1.287,0,0,0,.522-1.056c0-.912-.786-1.479-2.051-1.479-1.237,0-1.976.553-1.976,1.479ZM81.751,55.72h-.566V51.777H84.3a1.718,1.718,0,0,1,1.06.29,1.337,1.337,0,0,1,0,1.954,1.717,1.717,0,0,1-1.06.291h-.212l1.905,1.407H85l-1.768-1.408H81.751v1.408Zm0-3.382,0,1.407h2.545c.617,0,.917-.23.917-.7,0-.441-.343-.7-.917-.7ZM23.717,55.72h-.564V51.777h.567l3.464,3.167V51.777h.636v3.942h-.638l-3.464-3.168v3.168Zm45.026,0h-.849l2.192-2.042-2.049-1.9h.778l1.7,1.548,1.626-1.548h.848l-2.12,1.9,2.261,2.041h-.848L70.509,54.1l-1.766,1.62Zm21.49,0h-.568v-1.2l-2.474-2.746h.777l.848.986,1.132,1.268,1.06-1.268.922-.986h.778l-2.474,2.746v1.2Zm-30.255,0h-4.1V51.777h.565v3.378h3.534v.564Zm-12.932,0h-.64V51.777h4.313v.563H47.042V53.4h3.327v.565H47.046v1.759Zm-39.232,0H7.248V51.777h.565v3.942Zm72.88-10.6h-.076c-3.867,0-7.013-2.142-7.013-4.767s3.146-4.762,7.013-4.762h.076a13.477,13.477,0,0,1,4.015.611l.083.027v1.2l-.164-.066a10.7,10.7,0,0,0-3.88-.725h-.129c-2.784,0-5.05,1.668-5.05,3.718s2.265,3.718,5.05,3.718h.123a10.714,10.714,0,0,0,3.886-.726l.164-.067v1.2l-.083.026A13.452,13.452,0,0,1,80.693,45.117Zm-9.4-.2h0l-.207,0H69.344l-.035-.059-1.022-1.759H61.723L60.7,44.854l-.034.059H58.714l.106-.18,5.272-8.884.034-.058h1.757l.035.058,5.271,8.887.106.179ZM65,37.449l-2.675,4.6h5.352ZM28.715,44.915h0l-.208,0H26.764l-.036-.059L25.705,43.1H19.142l-1.023,1.759-.035.059H16.134l.107-.18,5.271-8.885.034-.058H23.3l.034.058,5.27,8.887.106.179Zm-6.29-7.466-2.678,4.6H25.1ZM1.812,44.914H0V35.789H1.788l.035.033L6.2,39.984l4.378-4.163.034-.033H12.4v9.124H10.6V37.68l-4.312,4.1-.083.078-.081-.078-4.308-4.1v7.234Zm50.621,0H45.014V35.789H51.42c1.743,0,3.16,1.095,3.16,2.44a2.139,2.139,0,0,1-.793,1.619A2.7,2.7,0,0,1,55.8,42.27C55.8,43.728,54.288,44.914,52.433,44.914Zm-5.557-4.246v3.2h5.152a1.625,1.625,0,1,0,0-3.2Zm0-3.835v2.793h4.138a1.424,1.424,0,1,0,0-2.793ZM100,44.914H98.138V40.669H90.673v4.244H88.81V35.789h1.863v3.837h7.465V35.789H100v9.124Zm-63.64,0H34.446V41.2l-4.809-5.217-.185-.2h2.092l.036.038L35.4,39.972l3.821-4.146.034-.038h2.093l-.185.2L36.36,41.2v3.709Zm13.594-18.25h0a37.09,37.09,0,0,1-7.629-.795,37.044,37.044,0,0,1-7.3-2.35A12.048,12.048,0,0,1,32.2,21.831a.937.937,0,0,1-.2-.3.966.966,0,0,1-.067-.354,11.96,11.96,0,0,1,.889-3.156A37.047,37.047,0,0,1,45.859,2c.029-.02,2.875-1.974,4.092-2h0c1.218.026,4.063,1.98,4.092,2A37.047,37.047,0,0,1,67.082,18.014a11.946,11.946,0,0,1,.89,3.156.963.963,0,0,1-.068.354.919.919,0,0,1-.2.3,12.086,12.086,0,0,1-2.822,1.688,37.043,37.043,0,0,1-7.3,2.35,37.1,37.1,0,0,1-7.629.795h0l0,0Zm0-1.17.345,0a34.575,34.575,0,0,0,3.922-.225V15.317l-4.268,2.6v0h0v0l-4.265-2.6v9.954a34.569,34.569,0,0,0,3.922.225Zm9.306-13.273-3.521,2.159V25.062a35.539,35.539,0,0,0,3.716-.8Zm-18.611,0-.195,12.04a35.319,35.319,0,0,0,3.716.8V14.379ZM60.778,9.844l.21,13.96a22.77,22.77,0,0,0,4.7-2.04l.013-.008a2.078,2.078,0,0,0,.8-.777,2.586,2.586,0,0,0-.117-1.281,25.984,25.984,0,0,0-2.779-5.88A36.617,36.617,0,0,0,60.778,9.844Zm-21.65,0a36.639,36.639,0,0,0-2.83,3.973A25.977,25.977,0,0,0,33.519,19.7a2.591,2.591,0,0,0-.118,1.281,2.077,2.077,0,0,0,.8.775l.015.01a22.744,22.744,0,0,0,4.705,2.04l.209-13.96Zm6.558-2.779v6.4l4.268,2.6,4.268-2.6v-6.4l-4.268,2.6v0h0v0ZM55.737,4.672v7.841l4.807-2.953A35,35,0,0,0,55.737,4.672Zm-11.568,0a34.949,34.949,0,0,0-4.807,4.886l4.807,2.953Zm5.784-3.448h0c-.882.04-2.716,1.11-5.451,3.179l-.012.01-.009.007,5.472,3.393L55.426,4.42,55.4,4.4c-2.736-2.069-4.57-3.139-5.451-3.179Z" transform="translate(0 0)" fill="#fff"/>
</svg>
